<?xml version="1.0" encoding="UTF-8" standalone="no"?>
<!-- Created with Inkscape (http://www.inkscape.org/) -->
<svg
   xmlns:svg="http://www.w3.org/2000/svg"
   xmlns="http://www.w3.org/2000/svg"
   version="1.0"
   width="30.299999"
   height="22.1"
   viewBox="0 0 30.3 22.1"
   id="Layer_1"
   xml:space="preserve"><defs
   id="defs86" />
<linearGradient
   x1="0.125"
   y1="10.4365"
   x2="30.1255"
   y2="10.4365"
   id="XMLID_9_"
   gradientUnits="userSpaceOnUse">
	<stop
   style="stop-color:#696969;stop-opacity:1"
   offset="0"
   id="stop4" />
	<stop
   style="stop-color:#aaadb6;stop-opacity:1"
   offset="0.2978"
   id="stop6" />
	<stop
   style="stop-color:#999a9e;stop-opacity:1"
   offset="0.4382"
   id="stop8" />
	<stop
   style="stop-color:#adb1ba;stop-opacity:1"
   offset="0.5618"
   id="stop10" />
	<stop
   style="stop-color:#828387;stop-opacity:1"
   offset="1"
   id="stop12" />
</linearGradient>
<rect
   width="30"
   height="20.6"
   x="0.1"
   y="0.1"
   style="fill:url(#XMLID_9_);stroke:#000000;stroke-width:0.25"
   id="rect14" />
<linearGradient
   x1="1.0288"
   y1="10.4365"
   x2="23.1831"
   y2="10.4365"
   id="XMLID_10_"
   gradientUnits="userSpaceOnUse">
	<stop
   style="stop-color:#aaadb6;stop-opacity:1"
   offset="0"
   id="stop17" />
	<stop
   style="stop-color:#696969;stop-opacity:1"
   offset="0.07865169"
   id="stop19" />
	<stop
   style="stop-color:#828387;stop-opacity:1"
   offset="0.4382"
   id="stop21" />
	<stop
   style="stop-color:#828387;stop-opacity:1"
   offset="0.93260002"
   id="stop23" />
	<stop
   style="stop-color:#adb1ba;stop-opacity:1"
   offset="1"
   id="stop25" />
</linearGradient>
<rect
   width="22.200001"
   height="17.9"
   x="1"
   y="1.5"
   style="fill:url(#XMLID_10_);stroke:#000000;stroke-width:0.1"
   id="rect27" />
<rect
   width="26.200001"
   height="1.4"
   x="2"
   y="20.700001"
   id="rect29" />
<linearGradient
   x1="24.1108"
   y1="10.4365"
   x2="29.0884"
   y2="10.4365"
   id="XMLID_11_"
   gradientUnits="userSpaceOnUse">
	<stop
   style="stop-color:#383838;stop-opacity:1"
   offset="0"
   id="stop32" />
	<stop
   style="stop-color:#616369;stop-opacity:1"
   offset="0.5618"
   id="stop34" />
	<stop
   style="stop-color:#525252;stop-opacity:1"
   offset="1"
   id="stop36" />
</linearGradient>
<rect
   width="5"
   height="18.9"
   x="24.1"
   y="1"
   style="fill:url(#XMLID_11_);stroke:#000000;stroke-width:0.1"
   id="rect38" />
<linearGradient
   x1="2.0991001"
   y1="10.4365"
   x2="22.111799"
   y2="10.4365"
   id="XMLID_12_"
   gradientUnits="userSpaceOnUse">
	<stop
   style="stop-color:#8c8c8c;stop-opacity:1"
   offset="0"
   id="stop41" />
	<stop
   style="stop-color:#5e5e5e;stop-opacity:1"
   offset="1"
   id="stop43" />
</linearGradient>
<path
   d="M 21.7,16.5 C 21.6,17.3 20.9,17.9 20.1,18 C 13.7,18.5 10.5,18.5 4.1,18 C 3.3,17.9 2.6,17.3 2.5,16.5 C 2,11.6 2,9.2 2.5,4.4 C 2.6,3.7 3.3,3 4.1,2.9 C 10.5,2.4 13.7,2.4 20.1,2.9 C 20.9,3 21.6,3.6 21.7,4.4 C 22.3,9.2 22.3,11.6 21.7,16.5 z "
   style="fill:url(#XMLID_12_);stroke:#000000;stroke-width:0.5"
   id="path45" />
<linearGradient
   x1="25.199699"
   y1="6.8906002"
   x2="27.9998"
   y2="9.6906996"
   id="XMLID_13_"
   gradientUnits="userSpaceOnUse">
	<stop
   style="stop-color:#9698a1;stop-opacity:1"
   offset="0.264"
   id="stop48" />
	<stop
   style="stop-color:#787a82;stop-opacity:1"
   offset="0.35960001"
   id="stop50" />
	<stop
   style="stop-color:#abaeb8;stop-opacity:1"
   offset="0.72469997"
   id="stop52" />
</linearGradient>
<circle
   cx="26.6"
   cy="8.3000002"
   r="2"
   style="fill:url(#XMLID_13_);stroke:#000000;stroke-width:0.1"
   id="circle54" />
<linearGradient
   x1="25.199699"
   y1="2.5009999"
   x2="28.0005"
   y2="5.3017998"
   id="XMLID_14_"
   gradientUnits="userSpaceOnUse">
	<stop
   style="stop-color:#9698a1;stop-opacity:1"
   offset="0.264"
   id="stop57" />
	<stop
   style="stop-color:#787a82;stop-opacity:1"
   offset="0.35960001"
   id="stop59" />
	<stop
   style="stop-color:#abaeb8;stop-opacity:1"
   offset="0.72469997"
   id="stop61" />
</linearGradient>
<circle
   cx="26.6"
   cy="3.9000001"
   r="2"
   style="fill:url(#XMLID_14_);stroke:#000000;stroke-width:0.1"
   id="circle63" />
<linearGradient
   x1="26.6001"
   y1="11.9004"
   x2="26.6001"
   y2="19.024401"
   id="XMLID_15_"
   gradientUnits="userSpaceOnUse">
	<stop
   style="stop-color:#3b3b3b;stop-opacity:1"
   offset="0"
   id="stop66" />
	<stop
   style="stop-color:#424345;stop-opacity:1"
   offset="0.52249998"
   id="stop68" />
	<stop
   style="stop-color:#3b3b3b;stop-opacity:1"
   offset="1"
   id="stop70" />
</linearGradient>
<rect
   width="3.2"
   height="7.1999998"
   x="25"
   y="11.8"
   style="fill:url(#XMLID_15_);stroke:#000000;stroke-width:0.1"
   id="rect72" />
<linearGradient
   x1="2.8740001"
   y1="16.1602"
   x2="21.336399"
   y2="16.1602"
   id="XMLID_16_"
   gradientUnits="userSpaceOnUse">
	<stop
   style="stop-color:#8c8c8c;stop-opacity:1"
   offset="0"
   id="stop75" />
	<stop
   style="stop-color:#7c7c7c;stop-opacity:1"
   offset="1"
   id="stop77" />
</linearGradient>
<path
   d="M 12.1,15.6 C 8.6,15.6 5.4,15.2 2.9,14.5 C 3,15.1 3,15.7 3.1,16.3 C 3.2,16.8 3.7,17.3 4.2,17.3 C 10.6,17.8 13.7,17.8 20.1,17.3 C 20.6,17.3 21.1,16.8 21.2,16.3 C 21.3,15.6 21.3,15 21.4,14.5 C 18.8,15.2 15.6,15.6 12.1,15.6 z "
   style="fill:url(#XMLID_16_)"
   id="path79" />
<circle
   cx="26.6"
   cy="3.9000001"
   r="1"
   style="fill:#8c8c8c;stroke:#000000;stroke-width:0.1"
   id="circle81" />
<circle
   cx="26.6"
   cy="8.3000002"
   r="1"
   style="fill:#8c8c8c;stroke:#000000;stroke-width:0.1"
   id="circle83" />
</svg>